# xmcd
#
# Track frame offsets: 
#        150
#        16706
#        30553
#        43185
#        60938
#        72445
#        96256
#        106602
#        125392
#        141045
#        161143
#        175282
#        189117
#        208522
#        220035
#        238952
#        261065
#
# Disc length: 3723 seconds
#
# Revision: 0
# Processed by: cddbd v1.5.2PL0 Copyright (c) Steve Scherf et al.
# Submitted via: ExactAudioCopy v1.0b4
#
DISCID=e40e8911
DTITLE=Signature Sound - Oh, What A Savior
DYEAR=2014
DGENRE=Gospel
TTITLE0=When The Saints Go Marching In
TTITLE1=Heavenly Parade
TTITLE2=Swing Low, Sweet Chariot
TTITLE3=That's Why
TTITLE4=Walk With Me
TTITLE5=Scars In The Hands Of Jesus
TTITLE6=Noah Found Grace In The Eyes Of The Lord
TTITLE7=Glorious Day
TTITLE8=Water Walking God
TTITLE9=Shh, Be Still
TTITLE10=Climbing Higher And Higher
TTITLE11=Every Time
TTITLE12=Climb Every Mountain (with J. Mark McVey)
TTITLE13=Up Above My Head (I Hear Music In The Air) (with Wesley Pritc
TTITLE13=hard)
TTITLE14=Blue Again (featuring Wayne Haun)
TTITLE15=Sometimes I Wonder
TTITLE16=Oh, What A Savior
EXTD=
EXTT0=
EXTT1=
EXTT2=
EXTT3=
EXTT4=
EXTT5=
EXTT6=
EXTT7=
EXTT8=
EXTT9=
EXTT10=
EXTT11=
EXTT12=
EXTT13=
EXTT14=
EXTT15=
EXTT16=
PLAYORDER=
